<svg width="120" height="56" viewBox="0 0 120 56" fill="none" xmlns="http://www.w3.org/2000/svg">
<g clip-path="url(#clip0_2013_2)">
<g clip-path="url(#clip1_2013_2)">
<g clip-path="url(#clip2_2013_2)">
<path d="M0.0160217 14.8621H4.81871V27.7618L10.9312 14.8621H15.7339L10.0183 26.1246L15.8232 45.4643H10.8022L6.74375 31.8402L4.81871 35.7002V45.4345H0.0160217V14.8621Z" fill="black"/>
<path d="M19.5344 14.8621H24.3371V45.4246H19.5344V14.8621Z" fill="black"/>
<path d="M29.3581 14.8621H34.1607V27.7618L40.2733 14.8621H45.0759L39.3604 26.1246L45.1653 45.4643H40.1443L36.0858 31.8402L34.1607 35.7002V45.4345H29.3581V14.8621Z" fill="black"/>
<path d="M49.5313 43.9163C48.2411 42.3093 47.6003 40.277 47.7353 38.2206V36.4742H52.28V38.5679C52.28 40.5525 53.1135 41.5448 54.7706 41.5448C55.1133 41.5678 55.4568 41.5157 55.7773 41.3923C56.0978 41.269 56.3875 41.0772 56.6262 40.8303C57.1062 40.1484 57.331 39.3195 57.2613 38.4885C57.2816 37.3024 56.9798 36.133 56.3881 35.1048C55.4862 33.7829 54.3965 32.5995 53.1532 31.5921C51.5227 30.2501 50.1217 28.6514 49.0054 26.8589C48.2122 25.3879 47.8123 23.737 47.8444 22.0661C47.717 20.0283 48.3738 18.0189 49.6802 16.4497C50.3781 15.7618 51.2137 15.2292 52.1321 14.8872C53.0505 14.5452 54.0309 14.4013 55.0088 14.4652C55.9707 14.397 56.9359 14.5392 57.8373 14.882C58.7387 15.2247 59.5546 15.7597 60.2282 16.4497C61.4999 18.069 62.1289 20.1008 61.9945 22.1554V23.4156H57.43V21.8081C57.5008 20.9969 57.2867 20.1864 56.8247 19.5159C56.5965 19.2735 56.3164 19.0859 56.0053 18.9673C55.6942 18.8488 55.3603 18.8022 55.0286 18.8312C53.431 18.8312 52.6273 19.8235 52.6273 21.7585C52.623 22.8546 52.9329 23.929 53.5204 24.8544C54.4378 26.1642 55.5332 27.3398 56.7751 28.3473C58.4308 29.6747 59.8355 31.2878 60.9228 33.1103C61.7149 34.663 62.1071 36.3888 62.064 38.1313C62.2001 40.2189 61.5367 42.2802 60.2084 43.8965C59.5025 44.5936 58.6555 45.1314 57.7244 45.4737C56.7933 45.816 55.7996 45.9549 54.8103 45.8811C53.8407 45.9545 52.8667 45.817 51.9553 45.4778C51.044 45.1386 50.217 44.6059 49.5313 43.9163Z" fill="black"/>
<path d="M67.7597 43.9362C66.4657 42.3884 65.8157 40.4027 65.9438 38.3893V21.9768C65.8167 19.9635 66.4666 17.9782 67.7597 16.4299C68.4441 15.7432 69.2674 15.2108 70.1745 14.8685C71.0816 14.5262 72.0514 14.3819 73.0189 14.4453C73.9864 14.3813 74.9564 14.5252 75.8635 14.8676C76.7707 15.2099 77.594 15.7426 78.278 16.4299C79.5711 17.9782 80.221 19.9635 80.0939 21.9768V25.2117H75.5492V21.6692C75.5492 19.7838 74.7554 18.8312 73.1479 18.8312C71.5403 18.8312 70.7465 19.8235 70.7465 21.6692V38.7465C70.7465 40.6021 71.5503 41.5348 73.1479 41.5348C74.7454 41.5348 75.5492 40.6021 75.5492 38.7465V34.0728H80.0939V38.3893C80.222 40.4027 79.572 42.3884 78.278 43.9362C77.594 44.6234 76.7707 45.1562 75.8635 45.4985C74.9564 45.8408 73.9864 45.9848 73.0189 45.9208C72.0514 45.9842 71.0816 45.8399 70.1745 45.4976C69.2674 45.1553 68.4441 44.6229 67.7597 43.9362Z" fill="black"/>
<path d="M86.0278 43.8965C84.6934 42.3175 84.0214 40.2837 84.1523 38.2206V22.1554C84.0204 20.0922 84.6925 18.058 86.0278 16.4795C87.5314 15.1793 89.4529 14.4638 91.4407 14.4638C93.4286 14.4638 95.35 15.1793 96.8537 16.4795C98.1981 18.0533 98.8746 20.09 98.739 22.1554V38.2206C98.8746 40.286 98.1981 42.3227 96.8537 43.8965C96.1433 44.5902 95.2942 45.1256 94.3621 45.4677C93.43 45.8097 92.4361 45.9506 91.4457 45.8811C90.4537 45.9514 89.458 45.8109 88.5242 45.4689C87.5904 45.1268 86.7396 44.5909 86.0278 43.8965ZM93.9661 38.5282V21.8081C93.9661 19.8235 93.1326 18.8312 91.4755 18.8312C89.8183 18.8312 88.9848 19.8235 88.9848 21.8081V38.5282C88.9848 40.5128 89.8183 41.5051 91.4755 41.5051C93.1326 41.5051 93.9363 40.5326 93.9363 38.5282H93.9661Z" fill="black"/>
<path d="M102.47 8.56104C102.367 8.1685 102.307 7.76589 102.291 7.36036C102.218 5.90848 102.723 4.48678 103.696 3.40633C104.669 2.32589 106.03 1.67466 107.481 1.59515L107.57 2.95459C107.271 2.95297 106.974 2.99645 106.687 3.08359C106.168 3.22784 105.682 3.47349 105.257 3.80638C104.833 4.13927 104.479 4.55282 104.215 5.02322C103.951 5.49362 103.783 6.01156 103.72 6.54722C103.658 7.08287 103.701 7.62564 103.849 8.14427L105.397 13.7507L104.068 14.1476L102.47 8.56104Z" fill="#4A6F5D"/>
<path d="M100.694 47.5382H82.4258V49.5327H100.694V47.5382Z" fill="#273A30"/>
<path d="M68.6825 48.5999C68.6806 49.8647 69.0539 51.1016 69.7554 52.154C70.4568 53.2064 71.4547 54.027 72.6228 54.5119C73.7909 54.9968 75.0766 55.1242 76.3171 54.8779C77.5577 54.6316 78.6972 54.0228 79.5915 53.1285C80.4858 52.2342 81.0947 51.0947 81.3409 49.8541C81.5872 48.6136 81.4598 47.3279 80.9749 46.1598C80.49 44.9917 79.6694 43.9938 78.617 43.2923C77.5646 42.5909 76.3277 42.2176 75.063 42.2195C74.2243 42.2169 73.3935 42.3801 72.6182 42.6999C71.8429 43.0196 71.1385 43.4895 70.5455 44.0825C69.9525 44.6755 69.4826 45.3799 69.1629 46.1552C68.8432 46.9305 68.6799 47.7613 68.6825 48.5999ZM75.063 52.331C74.0629 52.331 73.1038 51.9337 72.3967 51.2265C71.6895 50.5194 71.2922 49.5603 71.2922 48.5603C71.2922 47.8145 71.5134 47.0855 71.9277 46.4654C72.3421 45.8453 72.931 45.362 73.62 45.0766C74.309 44.7912 75.0671 44.7165 75.7986 44.862C76.53 45.0075 77.2019 45.3666 77.7292 45.894C78.2566 46.4213 78.6157 47.0932 78.7612 47.8246C78.9067 48.5561 78.832 49.3142 78.5466 50.0032C78.2612 50.6922 77.7779 51.2811 77.1578 51.6955C76.5378 52.1098 75.8087 52.331 75.063 52.331Z" fill="#273A30"/>
<path d="M113.604 42.2592C112.767 42.2553 111.939 42.4163 111.165 42.7329C110.391 43.0496 109.687 43.5157 109.094 44.1046C108.5 44.6936 108.029 45.3937 107.706 46.1651C107.383 46.9364 107.216 47.7639 107.213 48.6C107.211 49.8643 107.584 51.1008 108.285 52.153C108.986 53.2052 109.984 54.0258 111.151 54.511C112.319 54.9962 113.604 55.1241 114.844 54.8787C116.084 54.6332 117.224 54.0254 118.119 53.1321C119.013 52.2388 119.623 51.1001 119.87 49.8602C120.118 48.6204 119.992 47.335 119.508 46.1667C119.025 44.9984 118.206 43.9998 117.155 43.2972C116.104 42.5946 114.868 42.2195 113.604 42.2195V42.2592ZM113.604 52.3707C112.603 52.3707 111.644 51.9734 110.937 51.2663C110.23 50.5591 109.833 49.6 109.833 48.6C109.833 47.8542 110.054 47.1252 110.468 46.5051C110.883 45.885 111.472 45.4017 112.161 45.1163C112.85 44.8309 113.608 44.7562 114.339 44.9017C115.071 45.0472 115.743 45.4063 116.27 45.9337C116.797 46.461 117.156 47.1329 117.302 47.8643C117.447 48.5958 117.373 49.354 117.087 50.043C116.802 50.732 116.319 51.3209 115.698 51.7352C115.078 52.1495 114.349 52.3707 113.604 52.3707Z" fill="#273A30"/>
<path d="M105.162 11.1099L103.264 11.5775L106.986 26.6849L108.884 26.2173L105.162 11.1099Z" fill="#4A6F5D"/>
<path d="M105.243 10.7581L103.046 11.2993L103.333 12.4652L105.53 11.924L105.243 10.7581Z" fill="#273A30"/>
<path d="M104.821 10.0701L103.144 10.4831L103.346 11.3021L105.023 10.889L104.821 10.0701Z" fill="#273A30"/>
<path d="M106.191 26.1643L109.386 25.3605L112.085 36.4543L109.337 38.935L106.191 26.1643Z" fill="#4A6F5D"/>
<path d="M109.563 24.9612L105.815 25.8845L106.091 27.0022L109.839 26.0788L109.563 24.9612Z" fill="#273A30"/>
<path d="M108.921 24.3735L106.079 25.0738L106.281 25.8927L109.123 25.1925L108.921 24.3735Z" fill="#273A30"/>
<path d="M110.984 33.6561L114.526 48.1137C114.595 48.4057 114.547 48.7131 114.391 48.9694C114.235 49.2257 113.984 49.4102 113.693 49.4831H113.604C113.455 49.5246 113.299 49.5355 113.146 49.5152C112.994 49.4949 112.846 49.4438 112.714 49.3649C112.581 49.2861 112.466 49.1811 112.375 49.0565C112.284 48.9318 112.219 48.79 112.185 48.6396L108.632 34.182C108.591 34.0333 108.58 33.8779 108.6 33.7249C108.62 33.5719 108.672 33.4247 108.75 33.292C108.829 33.1594 108.934 33.0441 109.059 32.9532C109.183 32.8623 109.325 32.7976 109.476 32.763H109.565C109.871 32.6947 110.192 32.7502 110.458 32.9174C110.724 33.0847 110.913 33.3502 110.984 33.6561Z" fill="#4A6F5D"/>
<path d="M106.509 1.86306V1.77376C106.583 1.60314 106.69 1.44912 106.825 1.32082C106.959 1.19252 107.118 1.09255 107.292 1.02685C107.466 0.961145 107.652 0.931041 107.838 0.938321C108.023 0.945601 108.206 0.990117 108.374 1.06923L112.542 2.79582C112.864 2.94554 113.117 3.21315 113.248 3.54355C113.379 3.87395 113.378 4.24202 113.246 4.57202V4.66132C113.097 4.98369 112.829 5.23641 112.499 5.36746C112.168 5.49852 111.8 5.49794 111.47 5.36585L107.352 3.63926C107.177 3.58284 107.015 3.49111 106.876 3.36973C106.738 3.24835 106.625 3.09989 106.546 2.93349C106.467 2.76709 106.423 2.58628 106.417 2.40218C106.41 2.21809 106.442 2.03462 106.509 1.86306Z" fill="#273A30"/>
<path d="M112.71 6.25892C113.642 6.25892 114.397 5.50367 114.397 4.57203C114.397 3.64038 113.642 2.88513 112.71 2.88513C111.779 2.88513 111.024 3.64038 111.024 4.57203C111.024 5.50367 111.779 6.25892 112.71 6.25892Z" fill="#273A30"/>
<path d="M112.095 36.4444L104.336 47.1314L99.5924 47.8855V43.053C99.5832 41.3663 100.044 39.7102 100.922 38.2702L102.827 35.1643C103.658 33.8085 104.826 32.6911 106.217 31.9207C107.609 31.1504 109.175 30.7534 110.766 30.7685L112.095 36.4444Z" fill="#273A30"/>
<path d="M80.8778 51.2593L74.7554 49.5922C74.4672 49.5159 74.2211 49.3283 74.0713 49.0705C73.9215 48.8128 73.8802 48.5061 73.9566 48.2179C74.0329 47.9297 74.2206 47.6837 74.4783 47.5339C74.736 47.3841 75.0427 47.3428 75.3309 47.4191L81.2846 49.0167H95.1072C97.1558 49.0264 99.1765 48.5427 100.999 47.6066C102.821 46.6705 104.391 45.3094 105.576 43.6385L115.687 30.1136C115.865 29.8807 116.127 29.7271 116.416 29.6862C116.706 29.6454 117.001 29.7205 117.235 29.8953C117.469 30.0743 117.623 30.3381 117.664 30.6295C117.704 30.921 117.629 31.2168 117.454 31.4532L107.382 44.9186C106.004 46.8847 104.17 48.4883 102.038 49.5924C99.9058 50.6965 97.5381 51.2684 95.137 51.2593H80.8778Z" fill="#4A6F5D"/>
<path d="M81.235 49.4434C81.1257 47.3268 80.2085 45.3327 78.6725 43.8724C77.1364 42.412 75.0986 41.5967 72.9792 41.5944H70.7267C70.4319 41.5944 70.1492 41.4773 69.9408 41.2689C69.7324 41.0605 69.6153 40.7778 69.6153 40.483C69.6153 40.1883 69.7324 39.9056 69.9408 39.6972C70.1492 39.4888 70.4319 39.3717 70.7267 39.3717H73.0288C75.7146 39.3632 78.3006 40.3893 80.25 42.237C82.1993 44.0847 83.3623 46.6121 83.4974 49.2946C83.5031 49.589 83.3947 49.8742 83.195 50.0905C82.9953 50.3069 82.7197 50.4377 82.4258 50.4555C82.1386 50.4588 81.8599 50.3582 81.6411 50.1722C81.4223 49.9862 81.2781 49.7274 81.235 49.4434Z" fill="#4A6F5D"/>
<path d="M104.018 25.7773C103.653 23.8706 103.792 21.9017 104.422 20.0654C105.053 18.2292 106.151 16.5895 107.61 15.3086C108.99 14.1174 109.917 12.4878 110.237 10.6935C110.557 8.89928 110.249 7.0496 109.366 5.45515L108.702 4.16517L109.099 3.94687L109.763 5.23685C110.684 6.91748 111.002 8.86252 110.664 10.7488C110.327 12.6352 109.354 14.3492 107.908 15.6063C106.5 16.8243 105.438 18.3923 104.83 20.1521C104.222 21.9118 104.089 23.8009 104.445 25.6284L105.735 32.2768L105.288 32.3661L104.018 25.7773Z" fill="#273A30"/>
</g>
</g>
</g>
<defs>
<clipPath id="clip0_2013_2">
<rect width="120" height="54.06" fill="white" transform="translate(0 0.970001)"/>
</clipPath>
<clipPath id="clip1_2013_2">
<rect width="120" height="54.06" fill="white" transform="translate(0 0.970001)"/>
</clipPath>
<clipPath id="clip2_2013_2">
<rect width="119.968" height="54.06" fill="white" transform="translate(0.0160217 0.970001)"/>
</clipPath>
</defs>
</svg>
